D:\school\WTK\thesis\model\3dpredictsim\Results\Batchsim_tmt_linear\Pog_s1_tmt_bCst_d05_k800_ig24_pas_GRF.mot
nRows=25
nColumns=19

name D:\school\WTK\thesis\model\3dpredictsim\Results\Batchsim_tmt_linear\Pog_s1_tmt_bCst_d05_k800_ig24_pas_GRF.mot
datacolumns 19
datarows 25
range 0.5529644666 0.8183874105
endheader
time 	ground_force_vx	ground_force_vy	ground_force_vz	ground_force_px	ground_force_py	ground_force_pz	1_ground_force_vx	1_ground_force_vy	1_ground_force_vz	1_ground_force_px	1_ground_force_py	1_ground_force_pz	ground_torque_x	ground_torque_y	ground_torque_z	1_ground_torque_x	1_ground_torque_y	1_ground_torque_z
        0.5529644666	      105.2083910562	      546.9369076032	        1.6365468383	        0.3849140720	        0.0000000000	        0.0356749895	      -56.2959894506	       41.1543102241	      -17.2366109918	        0.8656435553	        0.0000000000	       -0.0409252187	        0.0000000000	        0.0000000000	        0.0000000000	        0.0000000000	        0.0000000000	        0.0000000000	
        0.5640237559	       94.1180623949	      470.1778197290	        5.0975563749	        0.3877853568	        0.0000000000	        0.0350440673	     -100.2796932716	       93.1205525881	      -43.0103636497	        0.8755886892	        0.0000000000	       -0.0378525736	        0.0000000000	        0.0000000000	        0.0000000000	        0.0000000000	        0.0000000000	        0.0000000000	
        0.5750830452	       75.9104154179	      387.0410017892	       10.2017689243	        0.3919032548	        0.0000000000	        0.0338260367	      -91.7516976792	      195.0850305856	      -75.7118565930	        0.8818443275	        0.0000000000	       -0.0360613472	        0.0000000000	        0.0000000000	        0.0000000000	        0.0000000000	        0.0000000000	        0.0000000000	
        0.5861423345	       55.5499267691	      299.6457267216	        7.5142675876	        0.3982963660	        0.0000000000	        0.0313131380	      -46.2103497092	      353.1172401356	      -16.8751373882	        0.8858923211	        0.0000000000	       -0.0343320801	        0.0000000000	        0.0000000000	        0.0000000000	        0.0000000000	        0.0000000000	        0.0000000000	
        0.5972016239	       27.3638332710	      198.1449501747	        6.1562315393	        0.4107454032	        0.0000000000	        0.0256862982	      -51.0171174653	      519.6731252258	        2.2473998085	        0.8911988322	        0.0000000000	       -0.0353076263	        0.0000000000	        0.0000000000	        0.0000000000	        0.0000000000	        0.0000000000	        0.0000000000	
        0.6082609132	        7.8977899462	      137.8851048027	       10.5572116533	        0.4237215462	        0.0000000000	        0.0189927078	      -85.4468514953	      695.9445271355	        9.4006163539	        0.8991834721	        0.0000000000	       -0.0377382526	        0.0000000000	        0.0000000000	        0.0000000000	        0.0000000000	        0.0000000000	        0.0000000000	
        0.6193202025	        1.5662072724	      108.3648930678	       11.7380640538	        0.4236328812	        0.0000000000	        0.0192878654	     -106.9056672834	      805.5159214612	       12.6136666069	        0.9047447725	        0.0000000000	       -0.0393195758	        0.0000000000	        0.0000000000	        0.0000000000	        0.0000000000	        0.0000000000	        0.0000000000	
        0.6303794919	       -2.2459411298	       70.9334251619	       10.7772243260	        0.4241174435	        0.0000000000	        0.0193383440	     -111.1180592548	      844.0209565868	       13.5921093101	        0.9085760078	        0.0000000000	       -0.0402705635	        0.0000000000	        0.0000000000	        0.0000000000	        0.0000000000	        0.0000000000	        0.0000000000	
        0.6414387812	       -8.1415531499	       29.3266494537	        5.7301386800	        0.4237967871	        0.0000000000	        0.0191448257	     -106.2375311069	      839.7958905078	       13.8857132631	        0.9116172697	        0.0000000000	       -0.0408286670	        0.0000000000	        0.0000000000	        0.0000000000	        0.0000000000	        0.0000000000	        0.0000000000	
        0.6524980705	        0.0932284754	       -0.0925698435	       -0.0019670037	        0.0000000000	        0.0000000000	        0.0000000000	      -96.8843024404	      821.0379654717	       14.2333907703	        0.9147106952	        0.0000000000	       -0.0411165263	        0.0000000000	        0.0000000000	        0.0000000000	        0.0000000000	        0.0000000000	        0.0000000000	
        0.6635573599	        0.0001128801	       -0.0000920936	        0.0000063965	        0.0000000000	        0.0000000000	        0.0000000000	      -84.7238628395	      791.5985613173	       15.0011668665	        0.9179464270	        0.0000000000	       -0.0412373780	        0.0000000000	        0.0000000000	        0.0000000000	        0.0000000000	        0.0000000000	        0.0000000000	
        0.6746166492	        0.0000433024	       -0.0000307293	        0.0000032174	        0.0000000000	        0.0000000000	        0.0000000000	      -73.2088437719	      757.4189660278	       15.2803721329	        0.9216052895	        0.0000000000	       -0.0412793795	        0.0000000000	        0.0000000000	        0.0000000000	        0.0000000000	        0.0000000000	        0.0000000000	
        0.6856759385	        0.0004090630	       -0.0002602177	        0.0000338625	        0.0000000000	        0.0000000000	        0.0000000000	      -63.6128315495	      726.3629991910	       15.3956841904	        0.9259313931	        0.0000000000	       -0.0411996991	        0.0000000000	        0.0000000000	        0.0000000000	        0.0000000000	        0.0000000000	        0.0000000000	
        0.6967352279	        0.0052857235	       -0.0030805359	        0.0004629777	        0.0000000000	        0.0000000000	        0.0000000000	      -54.2183188233	      696.1311934759	       15.8822237134	        0.9303078074	        0.0000000000	       -0.0411034055	        0.0000000000	        0.0000000000	        0.0000000000	        0.0000000000	        0.0000000000	        0.0000000000	
        0.7077945172	       -0.0255400795	        0.0138367044	       -0.0023245879	        0.0000000000	        0.0000000000	        0.0000000000	      -44.9217949230	      667.1261619729	       16.3906436209	        0.9345641218	        0.0000000000	       -0.0410638111	        0.0000000000	        0.0000000000	        0.0000000000	        0.0000000000	        0.0000000000	        0.0000000000	
        0.7188538065	       -0.0178509667	        0.0090905757	       -0.0016746479	        0.0000000000	        0.0000000000	        0.0000000000	      -36.9276879766	      641.7052318717	       16.8899202503	        0.9388972600	        0.0000000000	       -0.0410766099	        0.0000000000	        0.0000000000	        0.0000000000	        0.0000000000	        0.0000000000	        0.0000000000	
        0.7299130959	       -0.0125160838	        0.0060455949	       -0.0012029849	        0.0000000000	        0.0000000000	        0.0000000000	      -30.3536727503	      620.7396017785	       17.5014753487	        0.9432598239	        0.0000000000	       -0.0411160303	        0.0000000000	        0.0000000000	        0.0000000000	        0.0000000000	        0.0000000000	        0.0000000000	
        0.7409723852	       -0.0113508953	        0.0052406378	       -0.0011085689	        0.0000000000	        0.0000000000	        0.0000000000	      -24.7511937263	      604.2946650010	       17.9705713294	        0.9477654218	        0.0000000000	       -0.0411679152	        0.0000000000	        0.0000000000	        0.0000000000	        0.0000000000	        0.0000000000	        0.0000000000	
        0.7520316745	       -0.0138110155	        0.0061306528	       -0.0013641606	        0.0000000000	        0.0000000000	        0.0000000000	      -20.3233989008	      592.5973893635	       18.2784551374	        0.9526204557	        0.0000000000	       -0.0412044587	        0.0000000000	        0.0000000000	        0.0000000000	        0.0000000000	        0.0000000000	        0.0000000000	
        0.7630909638	       -0.0217283472	        0.0093190186	       -0.0021533258	        0.0000000000	        0.0000000000	        0.0000000000	      -17.1707198025	      585.1945192235	       18.2323795625	        0.9577841605	        0.0000000000	       -0.0412076128	        0.0000000000	        0.0000000000	        0.0000000000	        0.0000000000	        0.0000000000	        0.0000000000	
        0.7741502532	       -0.0411517371	        0.0171272433	       -0.0040646487	        0.0000000000	        0.0000000000	        0.0000000000	      -15.2438341509	      581.6963733969	       18.2104653830	        0.9633001711	        0.0000000000	       -0.0411563202	        0.0000000000	        0.0000000000	        0.0000000000	        0.0000000000	        0.0000000000	        0.0000000000	
        0.7852095425	       -0.0862572952	        0.0349813265	       -0.0084542089	        0.0000000000	        0.0000000000	        0.0000000000	      -14.2266556770	      580.8198584403	       18.1444717129	        0.9690292243	        0.0000000000	       -0.0410538821	        0.0000000000	        0.0000000000	        0.0000000000	        0.0000000000	        0.0000000000	        0.0000000000	
        0.7962688318	       -0.1842318545	        0.0730765339	       -0.0178519368	        0.0000000000	        0.0000000000	        0.0000000000	      -13.2606980345	      581.1915629597	       18.0415887457	        0.9748567601	        0.0000000000	       -0.0409110857	        0.0000000000	        0.0000000000	        0.0000000000	        0.0000000000	        0.0000000000	        0.0000000000	
        0.8073281212	       -0.3729896784	        0.1452401337	       -0.0356238055	        0.0000000000	        0.0000000000	        0.0000000000	      -12.0438458486	      581.6213753911	       17.8979621049	        0.9807112668	        0.0000000000	       -0.0407391692	        0.0000000000	        0.0000000000	        0.0000000000	        0.0000000000	        0.0000000000	        0.0000000000	
        0.8183874105	       -0.6769144128	        0.2596824623	       -0.0635624354	        0.0000000000	        0.0000000000	        0.0000000000	      -10.6359555194	      581.3853932140	       17.6786245450	        0.9865292897	        0.0000000000	       -0.0405509727	        0.0000000000	        0.0000000000	        0.0000000000	        0.0000000000	        0.0000000000	        0.0000000000	
